HIERARCHY
ROOT Hips
{
	OFFSET -3.958830 18.904000 13.208200
	CHANNELS 6 Xposition Yposition Zposition Zrotation Yrotation Xrotation 
	JOINT LHipJoint
	{
		OFFSET 0.000000 0.000000 0.000000
		CHANNELS 3 Zrotation Yrotation Xrotation
		JOINT LeftUpLeg
		{
			OFFSET 1.800000 -1.400000 0.085000
			CHANNELS 3 Zrotation Yrotation Xrotation
			JOINT LeftLeg
			{
				OFFSET 2.215000 -6.000000 0.000000
				CHANNELS 3 Zrotation Yrotation Xrotation
				JOINT LeftFoot
				{
					OFFSET 2.500000 -6.900000 0.000000
					CHANNELS 3 Zrotation Yrotation Xrotation
					JOINT LeftToeBase
					{
						OFFSET 0.200000 -0.500000 1.950000
						CHANNELS 3 Zrotation Yrotation Xrotation
						End Site
						{
							OFFSET 0.000000 0.000000 0.000000
						}
					}
				}
			}
		}
	}
	JOINT RHipJoint
	{
		OFFSET 0.000000 0.000000 0.000000
		CHANNELS 3 Zrotation Yrotation Xrotation
		JOINT RightUpLeg
		{
			OFFSET -1.800000 -1.400000 0.085000
			CHANNELS 3 Zrotation Yrotation Xrotation
			JOINT RightLeg
			{
				OFFSET -2.215000 -6.000000 0.000000
				CHANNELS 3 Zrotation Yrotation Xrotation
				JOINT RightFoot
				{
					OFFSET -2.500000 -6.900000 0.000000
					CHANNELS 3 Zrotation Yrotation Xrotation
					JOINT RightToeBase
					{
						OFFSET -0.200000 -0.500000 1.950000
						CHANNELS 3 Zrotation Yrotation Xrotation
						End Site
						{
							OFFSET 0.000000 0.000000 0.000000
						}
					}
				}
			}
		}
	}
	JOINT LowerBack
	{
		OFFSET 0.000000 0.000000 0.000000
		CHANNELS 3 Zrotation Yrotation Xrotation
		JOINT Spine
		{
			OFFSET -0.087000 1.940000 -0.288900
			CHANNELS 3 Zrotation Yrotation Xrotation
			JOINT Spine1
			{
				OFFSET 0.000000 1.950000 0.060000
				CHANNELS 3 Zrotation Yrotation Xrotation
				JOINT Neck
				{
					OFFSET 0.000000 0.000000 0.000000
					CHANNELS 3 Zrotation Yrotation Xrotation
					JOINT Neck1
					{
						OFFSET 0.000000 1.600000 0.340000
						CHANNELS 3 Zrotation Yrotation Xrotation
						JOINT Head
						{
							OFFSET 0.000000 1.667000 -0.240000
							CHANNELS 3 Zrotation Yrotation Xrotation
							End Site
							{
								OFFSET 0.000000 0.000000 0.000000
							}
						}
					}
				}
				JOINT LeftShoulder
				{
					OFFSET 0.000000 0.000000 0.000000
					CHANNELS 3 Zrotation Yrotation Xrotation
					JOINT LeftArm
					{
						OFFSET 2.700000 1.550000 -0.730000
						CHANNELS 3 Zrotation Yrotation Xrotation
						JOINT LeftForeArm
						{
							OFFSET 5.450000 0.000000 0.000000
							CHANNELS 3 Zrotation Yrotation Xrotation
							JOINT LeftHand
							{
								OFFSET 3.450000 0.000000 0.000000
								CHANNELS 3 Zrotation Yrotation Xrotation
								JOINT LeftHandIndex1
								{
									OFFSET 0.750000 0.000000 0.000000
									CHANNELS 3 Zrotation Yrotation Xrotation
									End Site
									{
										OFFSET 0.000000 0.000000 0.000000
									}
								}
							}
						}
					}
				}
				JOINT RightShoulder
				{
					OFFSET 0.000000 0.000000 0.000000
					CHANNELS 3 Zrotation Yrotation Xrotation
					JOINT RightArm
					{
						OFFSET -2.700000 1.550000 -0.730000
						CHANNELS 3 Zrotation Yrotation Xrotation
						JOINT RightForeArm
						{
							OFFSET -5.450000 0.000000 0.000000
							CHANNELS 3 Zrotation Yrotation Xrotation
							JOINT RightHand
							{
								OFFSET -3.450000 0.000000 0.000000
								CHANNELS 3 Zrotation Yrotation Xrotation
								JOINT RightHandIndex1
								{
									OFFSET -0.750000 0.000000 0.000000
									CHANNELS 3 Zrotation Yrotation Xrotation
									End Site
									{
										OFFSET 0.000000 0.000000 0.000000
									}
								}
							}
						}
					}
				}
			}
		}
	}
}
MOTION
Frames: 8
Frame Time: 0.016667
-0.803390 17.047340 -1.670490 -2.283306 -13.304285 -21.054362 -15.024762 13.613994 3.201207 1.011162 0.936179 -0.513393 -0.826018 3.987597 2.068833 -0.208637 4.071337 3.430927 -0.430550 -0.370240 -0.752660 18.239747 -10.787740 3.705697 -4.745104 -3.003295 17.417666 9.442724 -6.720028 3.363227 -0.841116 -6.092953 2.391700 -0.110110 0.946410 0.144240 -3.505631 -2.305984 -8.140557 11.679089 -3.017246 48.952895 -13.425200 9.015409 -13.791478 1.753445 -3.602080 -15.449882 -9.695923 3.909517 50.552887 3.778660 -3.135260 4.714320 22.480879 0.324573 0.758404 30.771872 -15.068885 -3.011645 137.654460 21.078418 50.628096 -4.704535 2.828002 0.211790 0.379340 -0.201840 0.273860 -25.530234 12.089910 9.902864 -25.839396 4.578518 -7.391732 -141.221455 -17.603189 46.201952 2.931213 -1.546477 -0.404300 0.587940 0.513730 0.296730 
-0.793000 17.049340 -1.683420 -2.492302 -13.631548 -23.182339 -15.047791 13.592525 3.225234 1.966695 1.270920 2.188991 -1.209182 4.231186 1.525846 -0.167945 4.425080 3.317912 -0.427670 -0.371440 -0.758810 18.233971 -10.706496 3.712304 -4.859900 -3.194716 19.621498 9.285677 -6.932682 3.607755 -0.890117 -6.354125 2.281221 -0.084460 0.971540 0.176920 -3.479755 -2.410524 -8.140589 12.368493 -3.373557 51.315525 -13.810102 9.398787 -11.625262 2.078118 -3.464739 -15.031296 -9.345138 3.487518 49.093927 2.584880 -3.423180 3.621300 23.677850 1.794052 0.576971 27.790746 -18.173026 -3.300010 136.376095 20.506027 46.032249 -4.774320 2.838023 0.186210 0.415160 -0.229470 0.261740 -27.433806 10.923781 9.609114 -23.028809 5.663128 -8.414702 -140.257827 -20.106250 46.952783 2.953340 -1.655843 -0.405950 0.587760 0.545840 0.293330 
-0.814600 17.039460 -1.703840 -1.986421 -14.762403 -25.965715 -14.984707 13.321597 3.204341 3.189348 1.676827 5.462797 -2.129597 4.566447 1.436594 -0.176139 4.825714 3.171838 -0.369170 -0.334530 -0.689340 18.313920 -10.843108 3.737059 -6.024123 -3.249185 22.297928 9.526873 -7.298165 3.671584 -1.001693 -6.739278 2.115274 -0.030280 0.954860 0.217550 -3.715269 -1.768923 -8.050233 12.719852 -3.787241 51.868364 -14.028318 8.932327 -4.382051 2.386671 -3.791055 -13.617811 -9.299752 4.285779 45.972479 2.011250 -1.909780 0.549310 20.795157 -1.077795 0.579483 31.035674 -15.505372 -5.293837 133.142800 22.660662 45.591572 -4.758143 2.893686 0.226160 0.426920 -0.222170 0.239080 -25.571075 12.634484 9.048729 -25.178826 4.620313 -10.125281 -137.429672 -23.152706 48.445851 2.932490 -1.634024 -0.421460 0.589130 0.561000 0.242170 
-0.823520 17.039100 -1.700450 -1.968165 -15.238657 -27.663126 -14.902238 12.989079 3.202882 4.003164 1.836996 8.120811 -2.860848 4.738603 0.584224 -0.160501 5.155771 3.072032 -0.362550 -0.352920 -0.661340 18.423241 -11.024520 3.737909 -6.316818 -3.430425 24.019196 9.220494 -7.541975 4.080264 -1.045863 -7.043379 1.987847 -0.002300 0.982170 0.261330 -4.028049 -0.979528 -7.914347 14.145831 -4.747918 50.374291 -14.336426 7.977412 4.914007 2.613467 -4.254066 -12.856780 -9.441224 4.281853 41.269986 0.536420 -0.950640 -0.537980 20.844755 -3.760726 1.069648 31.482654 -12.841799 -7.750580 130.202681 25.233783 43.866069 -4.843428 3.020966 0.195420 0.482690 -0.265170 0.218240 -26.155586 13.998218 9.049675 -24.549450 1.778731 -12.049083 -133.551591 -25.822286 44.627310 3.049732 -1.755709 -0.437280 0.568310 0.585550 0.214660 
-0.837130 17.044380 -1.690760 -1.708326 -15.803153 -28.254837 -14.823455 12.735343 3.126133 4.518893 1.838546 9.117370 -3.283151 4.827622 0.832516 -0.216537 5.299695 3.025541 -0.335780 -0.335000 -0.609070 18.521880 -11.223323 3.721904 -7.222370 -3.477927 24.693800 9.149505 -7.626664 3.868935 -1.062338 -7.240419 1.895128 0.053830 0.990390 0.279370 -4.318177 -0.269571 -7.759552 15.107936 -4.591875 47.847899 -13.847143 7.177532 12.940425 2.543082 -4.565002 -11.693238 -9.040789 4.090525 36.342050 -1.045170 -0.032130 -2.001500 20.318902 -6.138580 1.432224 32.724522 -10.782742 -9.914543 124.781501 26.219633 37.875772 -4.918467 3.109123 0.161600 0.527400 -0.303090 0.195220 -25.469376 14.692001 8.699419 -24.581335 -0.531629 -13.382783 -127.022752 -25.832184 35.542285 3.142158 -1.873836 -0.460270 0.562910 0.591520 0.180430 
-0.840970 17.048180 -1.668110 -1.901891 -16.660786 -27.784997 -14.735106 12.474524 3.018891 4.825828 1.740621 9.044590 -3.325917 4.769328 1.026874 -0.306584 5.277346 3.027283 -0.274420 -0.252440 -0.546890 18.637776 -11.458381 3.691218 -7.527224 -3.521591 24.178891 8.950818 -7.633950 4.231802 -1.051110 -7.317759 1.840354 0.146500 0.984470 0.283060 -4.665058 0.524753 -7.606844 16.979565 -4.311250 44.306668 -13.375565 6.402900 19.149921 2.467974 -5.072907 -10.072472 -8.776925 3.858991 32.037627 -2.569770 0.369380 -3.631530 18.743153 -7.949823 1.259119 34.131030 -10.138126 -11.529654 118.283719 24.974255 29.729691 -4.951274 3.186124 0.108650 0.561600 -0.329830 0.185380 -23.501102 15.293707 7.775937 -27.010264 -0.330076 -14.235487 -119.045297 -23.505574 25.892922 3.146915 -1.916655 -0.467640 0.566950 0.570610 0.162230 
-0.843350 17.052700 -1.625630 -2.396401 -17.268505 -25.993740 -14.638760 12.203322 2.920835 5.457481 1.490869 7.964366 -4.173554 4.688117 0.771721 -0.416776 5.219162 3.037706 -0.222610 -0.228630 -0.494880 18.769517 -11.682133 3.649717 -7.110378 -3.663847 22.488586 8.416058 -7.548523 4.596555 -1.035300 -7.213042 1.867223 0.177360 0.970740 0.307760 -5.057386 1.294416 -7.514092 19.207861 -3.970719 39.621614 -13.275494 5.771921 22.638135 2.515887 -5.387383 -8.900622 -8.931060 3.991862 31.163715 -3.031650 0.424880 -4.719050 15.774069 -10.087387 1.251990 35.962619 -10.025408 -12.090062 111.525638 21.068980 20.930781 -4.898726 3.182752 0.144970 0.560110 -0.322260 0.186510 -20.266785 16.085211 6.771372 -30.005326 0.506638 -14.364644 -111.044537 -18.122786 16.416370 3.017619 -1.857528 -0.476650 0.567670 0.567340 0.131680 
-0.850360 17.053120 -1.589490 -2.702910 -17.975307 -24.518972 -14.534769 11.932364 2.800285 5.692561 1.244893 6.900281 -4.457666 4.583127 0.945388 -0.502824 5.090687 3.059302 -0.185780 -0.203320 -0.450720 18.910899 -11.928541 3.611653 -6.691718 -3.761129 21.026577 7.650975 -7.448032 5.075921 -1.019480 -7.117675 1.879023 0.198800 0.941560 0.328760 -5.498333 2.112658 -7.391401 21.189060 -3.623557 35.120274 -13.786288 5.109451 25.610243 2.675666 -5.577316 -8.036454 -9.028767 4.182496 31.096962 -3.537030 0.600810 -5.405150 14.967681 -10.837097 1.249668 35.876817 -10.620057 -12.195179 105.622498 16.017297 12.503921 -4.858736 3.189106 0.155550 0.551200 -0.307660 0.175850 -19.262670 15.952808 6.190552 -30.913891 3.189454 -14.695839 -105.103467 -13.005922 8.637923 2.927695 -1.848098 -0.465750 0.551590 0.564170 0.112450 
